<svg width="24" height="24" viewBox="0 0 24 24" fill="none" xmlns="http://www.w3.org/2000/svg">
<path d="M6 6.75C6.00072 6.21052 6.11783 5.67755 6.34334 5.18747C6.56885 4.69738 6.89745 4.26172 7.3067 3.91023C7.71595 3.55873 8.19623 3.29968 8.71474 3.15074C9.23326 3.00181 9.7778 2.96651 10.3112 3.04724C10.8446 3.12798 11.3543 3.32285 11.8055 3.61857C12.2567 3.91428 12.6388 4.30386 12.9257 4.76073C13.2126 5.21759 13.3976 5.73098 13.468 6.26585C13.5383 6.80072 13.4925 7.34448 13.3335 7.86C11.7941 8.33272 10.4265 9.24515 9.399 10.485C8.46905 10.3976 7.6052 9.96624 6.97654 9.27543C6.34787 8.58462 5.99964 7.68405 6 6.75ZM9.75 4.5C9.15326 4.5 8.58097 4.73706 8.15901 5.15901C7.73705 5.58097 7.5 6.15327 7.5 6.75C7.5 7.34674 7.73705 7.91904 8.15901 8.34099C8.58097 8.76295 9.15326 9 9.75 9C10.3467 9 10.919 8.76295 11.341 8.34099C11.7629 7.91904 12 7.34674 12 6.75C12 6.15327 11.7629 5.58097 11.341 5.15901C10.919 4.73706 10.3467 4.5 9.75 4.5ZM15.75 22.5C16.6364 22.5 17.5142 22.3254 18.3331 21.9862C19.1521 21.647 19.8962 21.1498 20.523 20.523C21.1498 19.8962 21.647 19.1521 21.9862 18.3331C22.3254 17.5142 22.5 16.6364 22.5 15.75C22.5 14.8636 22.3254 13.9858 21.9862 13.1669C21.647 12.3479 21.1498 11.6038 20.523 10.977C19.8962 10.3502 19.1521 9.85304 18.3331 9.51382C17.5142 9.1746 16.6364 9 15.75 9C13.9598 9 12.2429 9.71116 10.977 10.977C9.71116 12.2429 9 13.9598 9 15.75C9 17.5402 9.71116 19.2571 10.977 20.523C12.2429 21.7888 13.9598 22.5 15.75 22.5ZM19.281 12.969C19.3508 13.0387 19.4063 13.1214 19.4441 13.2126C19.4819 13.3037 19.5013 13.4014 19.5013 13.5C19.5013 13.5987 19.4819 13.6963 19.4441 13.7875C19.4063 13.8786 19.3508 13.9613 19.281 14.031L14.781 18.531C14.7113 18.6008 14.6286 18.6563 14.5374 18.6941C14.4463 18.7319 14.3487 18.7513 14.25 18.7513C14.1513 18.7513 14.0537 18.7319 13.9626 18.6941C13.8714 18.6563 13.7887 18.6008 13.719 18.531L12.219 17.031C12.0782 16.8902 11.9991 16.6992 11.9991 16.5C11.9991 16.3008 12.0782 16.1098 12.219 15.969C12.3598 15.8282 12.5508 15.7491 12.75 15.7491C12.9492 15.7491 13.1402 15.8282 13.281 15.969L14.25 16.9395L18.219 12.969C18.2887 12.8992 18.3714 12.8437 18.4626 12.8059C18.5537 12.7681 18.6513 12.7487 18.75 12.7487C18.8487 12.7487 18.9463 12.7681 19.0374 12.8059C19.1286 12.8437 19.2113 12.8992 19.281 12.969ZM8.4 12H5.25C4.008 12 3 13.4325 3 14.625V15C3 17.595 5.331 20.46 9.33 20.9325C8.89892 20.3987 8.53612 19.8132 8.25 19.1895C5.7225 18.435 4.5 16.467 4.5 15V14.625C4.5 14.415 4.605 14.0835 4.83 13.8045C5.055 13.5225 5.226 13.5 5.25 13.5H7.8105C7.959 12.9765 8.1555 12.4755 8.4 12Z" fill="black"/>
</svg>
