<svg width="38" height="38" viewBox="0 0 38 38" fill="none" xmlns="http://www.w3.org/2000/svg">
<path d="M16.4334 27.4337L29.3584 14.5087L26.7917 11.942L16.4334 22.3003L11.2084 17.0753L8.64175 19.642L16.4334 27.4337ZM19.0001 37.3337C16.464 37.3337 14.0806 36.8521 11.8501 35.889C9.61953 34.9271 7.67925 33.6212 6.02925 31.9712C4.37925 30.3212 3.0733 28.3809 2.11141 26.1503C1.1483 23.9198 0.666748 21.5364 0.666748 19.0003C0.666748 16.4642 1.1483 14.0809 2.11141 11.8503C3.0733 9.61977 4.37925 7.67949 6.02925 6.02949C7.67925 4.37949 9.61953 3.07294 11.8501 2.10983C14.0806 1.14794 16.464 0.666992 19.0001 0.666992C21.5362 0.666992 23.9195 1.14794 26.1501 2.10983C28.3806 3.07294 30.3209 4.37949 31.9709 6.02949C33.6209 7.67949 34.9269 9.61977 35.8887 11.8503C36.8519 14.0809 37.3334 16.4642 37.3334 19.0003C37.3334 21.5364 36.8519 23.9198 35.8887 26.1503C34.9269 28.3809 33.6209 30.3212 31.9709 31.9712C30.3209 33.6212 28.3806 34.9271 26.1501 35.889C23.9195 36.8521 21.5362 37.3337 19.0001 37.3337ZM19.0001 33.667C23.0945 33.667 26.5626 32.2462 29.4042 29.4045C32.2459 26.5628 33.6667 23.0948 33.6667 19.0003C33.6667 14.9059 32.2459 11.4378 29.4042 8.59616C26.5626 5.75449 23.0945 4.33366 19.0001 4.33366C14.9056 4.33366 11.4376 5.75449 8.59591 8.59616C5.75425 11.4378 4.33341 14.9059 4.33341 19.0003C4.33341 23.0948 5.75425 26.5628 8.59591 29.4045C11.4376 32.2462 14.9056 33.667 19.0001 33.667Z" fill="#45AF49"/>
</svg>
