<svg width="24" height="24" viewBox="0 0 24 24" fill="none" xmlns="http://www.w3.org/2000/svg">
<path d="M9 15L15 9" stroke="#666666" stroke-width="2" stroke-linecap="round" stroke-linejoin="round"/>
<path d="M9.5 10C9.77614 10 10 9.77614 10 9.5C10 9.22386 9.77614 9 9.5 9C9.22386 9 9 9.22386 9 9.5C9 9.77614 9.22386 10 9.5 10Z" fill="#666666" stroke="#666666" stroke-width="2" stroke-linecap="round" stroke-linejoin="round"/>
<path d="M14.5 15C14.7761 15 15 14.7761 15 14.5C15 14.2239 14.7761 14 14.5 14C14.2239 14 14 14.2239 14 14.5C14 14.7761 14.2239 15 14.5 15Z" fill="#666666" stroke="#666666" stroke-width="2" stroke-linecap="round" stroke-linejoin="round"/>
<path d="M5 7.20046C5 6.61699 5.23179 6.05741 5.64437 5.64483C6.05695 5.23225 6.61653 5.00046 7.2 5.00046H8.2C8.7809 5.00013 9.33809 4.77006 9.75 4.36046L10.45 3.66046C10.6545 3.45486 10.8975 3.2917 11.1652 3.18037C11.433 3.06903 11.7201 3.01172 12.01 3.01172C12.3 3.01172 12.587 3.06903 12.8548 3.18037C13.1225 3.2917 13.3656 3.45486 13.57 3.66046L14.27 4.36046C14.6819 4.77006 15.2391 5.00013 15.82 5.00046H16.82C17.4035 5.00046 17.9631 5.23225 18.3756 5.64483C18.7882 6.05741 19.02 6.61699 19.02 7.20046V8.20046C19.0203 8.78136 19.2504 9.33855 19.66 9.75046L20.36 10.4505C20.5656 10.6549 20.7288 10.898 20.8401 11.1657C20.9514 11.4334 21.0087 11.7205 21.0087 12.0105C21.0087 12.3004 20.9514 12.5875 20.8401 12.8552C20.7288 13.1229 20.5656 13.366 20.36 13.5705L19.66 14.2705C19.2504 14.6824 19.0203 15.2396 19.02 15.8205V16.8205C19.02 17.4039 18.7882 17.9635 18.3756 18.3761C17.9631 18.7887 17.4035 19.0205 16.82 19.0205H15.82C15.2391 19.0208 14.6819 19.2509 14.27 19.6605L13.57 20.3605C13.3656 20.5661 13.1225 20.7292 12.8548 20.8406C12.587 20.9519 12.3 21.0092 12.01 21.0092C11.7201 21.0092 11.433 20.9519 11.1652 20.8406C10.8975 20.7292 10.6545 20.5661 10.45 20.3605L9.75 19.6605C9.33809 19.2509 8.7809 19.0208 8.2 19.0205H7.2C6.61653 19.0205 6.05695 18.7887 5.64437 18.3761C5.23179 17.9635 5 17.4039 5 16.8205V15.8205C4.99967 15.2396 4.76961 14.6824 4.36 14.2705L3.66 13.5705C3.4544 13.366 3.29125 13.1229 3.17991 12.8552C3.06858 12.5875 3.01126 12.3004 3.01126 12.0105C3.01126 11.7205 3.06858 11.4334 3.17991 11.1657C3.29125 10.898 3.4544 10.6549 3.66 10.4505L4.36 9.75046C4.76961 9.33855 4.99967 8.78136 5 8.20046V7.20046" stroke="#666666" stroke-width="2" stroke-linecap="round" stroke-linejoin="round"/>
</svg>
