<svg width="34" height="29" viewBox="0 0 34 29" fill="none" xmlns="http://www.w3.org/2000/svg">
<path d="M1.50198 9.14384C1.4966 7.08511 2.29124 5.10672 3.71495 3.62456L3.80666 3.53338C5.299 2.04958 7.31949 1.21914 9.42393 1.22464C11.5284 1.23013 13.5445 2.07111 15.0291 3.56269L15.0315 3.56513L16.28 4.81088L16.9879 5.51722L17.6942 4.80931L18.921 3.57979C18.9214 3.57938 18.9218 3.57898 18.9222 3.57857C19.6615 2.84313 20.5384 2.26046 21.5028 1.86381C22.4678 1.46694 23.5014 1.26407 24.5448 1.26679C25.5882 1.26951 26.6208 1.47777 27.5837 1.87967C28.5465 2.28157 29.4208 2.86924 30.1565 3.60911L30.1601 3.61277C31.6513 5.0969 32.4922 7.11233 32.4982 9.21618C32.5042 11.3194 31.6751 13.339 30.1931 14.8315C30.1927 14.8319 30.1923 14.8323 30.1919 14.8327L17.3162 27.7002L17.3161 27.7003C17.2458 27.7706 17.1504 27.8101 17.051 27.8101C16.9516 27.8101 16.8564 27.7707 16.7861 27.7005C16.786 27.7005 16.786 27.7004 16.7859 27.7004C16.7859 27.7003 16.7859 27.7003 16.7858 27.7003L3.84185 14.7508L3.84003 14.749C2.34846 13.2644 1.50748 11.2483 1.50198 9.14384ZM16.3452 26.1969L17.0522 26.9038L17.7593 26.197L29.6585 14.3033L29.6611 14.3007C31.0039 12.9486 31.7548 11.1188 31.7488 9.21328C31.7428 7.30899 30.9813 5.48495 29.6317 4.14163C28.9667 3.47138 28.1763 2.9386 27.3054 2.57369C26.4335 2.2083 25.498 2.01839 24.5526 2.01483C23.6071 2.01127 22.6703 2.19413 21.7956 2.55295C20.9209 2.91176 20.1255 3.4395 19.4549 4.10597L19.4549 4.10595L19.4499 4.11096L18.7624 4.80396L18.7143 4.85243L18.6733 4.90698C18.663 4.92064 18.6518 4.93361 18.6398 4.94579C18.6395 4.94613 18.6392 4.94647 18.6388 4.94681L15.4875 8.09533L14.7798 8.80244L15.4872 9.50985L20.0164 14.039C20.0164 14.039 20.0164 14.0391 20.0165 14.0391C20.0867 14.1094 20.1262 14.2047 20.1262 14.3041C20.1262 14.4035 20.0867 14.4988 20.0165 14.5691C20.0164 14.5692 20.0164 14.5692 20.0164 14.5692L15.8915 18.6941L15.891 18.6946C15.8206 18.7652 15.725 18.8048 15.6254 18.8049C15.5257 18.805 15.4301 18.7654 15.3596 18.695C15.2891 18.6246 15.2494 18.529 15.2493 18.4294C15.2493 18.3297 15.2888 18.2341 15.3592 18.1636L18.5129 15.0098L19.2203 14.3025L18.5127 13.5954L13.9838 9.06925C13.9135 8.99892 13.874 8.90356 13.874 8.80412C13.874 8.70473 13.9135 8.60941 13.9837 8.5391C13.9837 8.53907 13.9838 8.53903 13.9838 8.53899L15.7574 6.76535L16.4646 6.05824L15.7574 5.35114L14.5031 4.09685C14.5028 4.09646 14.5024 4.09606 14.502 4.09567C13.1594 2.74435 11.3352 1.98124 9.43032 1.97405C7.52484 1.96687 5.69448 2.71663 4.34162 4.05851L4.34159 4.05849L4.33586 4.06427C2.99397 5.41714 2.24421 7.24749 2.2514 9.15297C2.25858 11.0578 3.02163 12.8819 4.37287 14.2245C4.37331 14.2249 4.37375 14.2254 4.37419 14.2258L16.3452 26.1969Z" fill="#333333" stroke="#333333" stroke-width="2"/>
</svg>
