<?xml version="1.0" standalone="no"?>
<!DOCTYPE svg PUBLIC "-//W3C//DTD SVG 20010904//EN"
 "http://www.w3.org/TR/2001/REC-SVG-20010904/DTD/svg10.dtd">
<svg version="1.0" xmlns="http://www.w3.org/2000/svg"
 width="170.000000pt" height="174.000000pt" viewBox="0 0 170.000000 174.000000"
 preserveAspectRatio="xMidYMid meet">

<g transform="translate(0.000000,174.000000) scale(0.100000,-0.100000)"
fill="#000000" stroke="none">
<path d="M595 1527 c-176 -45 -326 -86 -332 -90 -10 -6 -13 -98 -13 -403 l0
-394 100 0 99 0 3 118 3 117 144 3 c97 2 148 -1 157 -9 10 -8 14 -40 14 -120
l0 -109 100 0 100 0 0 469 c0 414 -2 471 -16 485 -8 9 -21 16 -27 15 -7 0
-156 -38 -332 -82z m179 -253 c9 -8 16 -21 16 -28 0 -32 -27 -37 -191 -34
l-164 3 -3 24 c-7 44 18 51 179 51 121 0 150 -3 163 -16z m6 -249 c16 -19 4
-52 -23 -59 -38 -10 -287 -7 -308 4 -18 10 -26 50 -12 63 3 4 79 7 168 7 130
0 165 -3 175 -15z"/>
<path d="M1050 1005 l0 -365 198 2 197 3 3 347 c2 305 0 348 -14 362 -13 13
-45 16 -200 16 l-184 0 0 -365z m298 149 c54 -37 8 -74 -93 -74 -92 0 -114 7
-122 38 -10 39 18 52 112 52 57 0 87 -5 103 -16z m16 -177 c9 -15 7 -22 -13
-38 -19 -15 -39 -19 -103 -19 -44 0 -88 5 -99 10 -18 10 -26 50 -12 64 4 3 54
5 111 4 89 -3 107 -6 116 -21z m-4 -156 c13 -25 13 -27 -6 -45 -12 -12 -37
-16 -103 -16 -102 0 -128 12 -117 53 l6 27 105 0 c93 0 105 -2 115 -19z"/>
<path d="M530 720 l0 -80 80 0 80 0 0 80 0 80 -80 0 -80 0 0 -80z"/>
<path d="M250 492 c0 -40 5 -73 12 -80 9 -9 153 -12 584 -12 507 0 574 2 588
16 11 11 16 35 16 80 l0 64 -600 0 -600 0 0 -68z"/>
<path d="M187 353 c-4 -3 -7 -25 -7 -47 0 -37 3 -43 30 -53 17 -6 30 -18 30
-27 0 -20 -26 -21 -34 -1 -9 25 -26 17 -26 -14 0 -33 27 -45 66 -31 20 8 24
17 24 49 0 34 -4 40 -30 50 -20 7 -30 17 -30 30 0 24 18 28 26 6 8 -19 34 -20
34 -1 0 33 -13 46 -44 46 -18 0 -36 -3 -39 -7z"/>
<path d="M300 264 l0 -95 43 3 c49 4 60 31 15 36 -34 4 -41 42 -8 42 11 0 20
7 20 15 0 8 -9 15 -20 15 -15 0 -20 7 -20 25 0 21 5 25 30 25 20 0 30 5 30 15
0 11 -12 15 -45 15 l-45 0 0 -96z"/>
<path d="M424 283 c4 -43 10 -86 12 -96 9 -30 28 -13 43 39 l14 49 11 -40 c21
-75 40 -82 50 -17 18 122 18 142 3 142 -9 0 -17 -18 -24 -52 l-9 -53 -8 53
c-10 64 -33 71 -42 12 -9 -57 -24 -60 -24 -6 0 36 -4 46 -16 46 -14 0 -15 -10
-10 -77z"/>
<path d="M616 270 c-11 -50 -16 -93 -13 -96 9 -9 27 6 27 22 0 23 47 18 53 -6
6 -25 27 -27 27 -2 -1 9 -9 51 -18 92 -14 60 -22 76 -38 78 -18 3 -22 -7 -38
-88z m47 3 c5 -26 3 -33 -9 -33 -12 0 -15 6 -10 23 3 12 6 28 6 36 0 22 6 9
13 -26z"/>
<path d="M802 268 c2 -54 7 -93 13 -93 6 0 11 15 13 33 3 31 22 47 22 18 0
-19 37 -63 46 -54 4 4 -2 29 -14 55 -20 47 -20 48 -1 85 23 45 23 48 4 48 -8
0 -23 -17 -34 -37 l-20 -38 -1 38 c0 26 -4 37 -15 37 -13 0 -15 -15 -13 -92z"/>
<path d="M965 348 c-20 -63 -35 -162 -25 -172 8 -8 12 -4 16 12 8 29 49 30 57
2 6 -24 27 -27 27 -3 0 10 -8 53 -17 95 -13 63 -20 78 -35 78 -10 0 -20 -6
-23 -12z m34 -90 c1 -10 -6 -18 -15 -18 -11 0 -14 5 -10 16 3 9 6 25 7 37 0
21 1 21 9 2 5 -11 9 -28 9 -37z"/>
<path d="M1072 268 c3 -99 19 -123 28 -41 l5 47 14 -40 c32 -93 51 -80 51 37
0 71 -3 89 -14 89 -11 0 -16 -14 -18 -47 l-3 -48 -16 45 c-9 26 -23 46 -33 48
-15 3 -16 -6 -14 -90z"/>
<path d="M1190 345 c0 -8 7 -15 15 -15 11 0 15 -18 17 -77 2 -61 6 -78 18 -78
12 0 16 17 18 78 2 59 6 77 17 77 8 0 15 7 15 15 0 11 -12 15 -50 15 -38 0
-50 -4 -50 -15z"/>
<path d="M1317 354 c-4 -4 -7 -43 -7 -86 0 -72 2 -79 23 -87 12 -5 31 -5 42
-1 18 6 20 16 20 91 l0 84 -35 3 c-20 2 -39 0 -43 -4z m53 -84 c0 -47 -3 -60
-15 -60 -12 0 -15 13 -15 60 0 47 3 60 15 60 12 0 15 -13 15 -60z"/>
<path d="M1432 268 c2 -54 7 -93 13 -93 6 0 11 15 13 33 4 41 16 41 28 0 14
-47 35 -48 34 -1 0 21 2 54 6 74 9 55 -8 79 -57 79 l-40 0 3 -92z m58 32 c0
-20 -5 -30 -15 -30 -10 0 -15 10 -15 30 0 20 5 30 15 30 10 0 15 -10 15 -30z"/>
</g>
</svg>
