<svg width="170" height="174" viewBox="0 0 170 174" fill="none" xmlns="http://www.w3.org/2000/svg">
<path d="M115.803 46.1982C115.682 42.9257 113.941 39.7744 110.904 37.9968L110.337 37.6736C112.037 38.522 113.495 39.8148 114.507 41.5521C115.317 43.0469 115.722 44.6226 115.803 46.1982Z" fill="white" stroke="black" stroke-width="5" stroke-miterlimit="10"/>
<path d="M68.9933 13.837L110.296 37.6736C107.462 36.2596 103.979 36.2596 101.023 37.9968L86.2838 46.5215L59.1535 30.8458C54.4563 28.139 52.8366 22.1192 55.5496 17.4327C58.2627 12.7461 64.2961 11.1301 68.9933 13.837Z" fill="white" stroke="black" stroke-width="5" stroke-miterlimit="10"/>
<path d="M115.479 48.9456C115.398 49.2284 115.317 49.5516 115.196 49.8344C115.317 49.5112 115.398 49.2284 115.479 48.9456Z" fill="white" stroke="black" stroke-width="5" stroke-miterlimit="10"/>
<path d="M115.196 49.8748C114.993 50.4 114.75 50.9252 114.467 51.4504C113.455 53.1877 111.997 54.5209 110.337 55.3289L110.904 55.0057C112.969 53.7937 114.426 51.9756 115.196 49.8748Z" fill="white" stroke="black" stroke-width="5" stroke-miterlimit="10"/>
<path d="M115.196 49.7939C115.196 49.8346 115.196 49.8346 115.155 49.8753C115.196 49.8346 115.196 49.8346 115.196 49.7939Z" fill="white" stroke="black" stroke-width="5" stroke-miterlimit="10"/>
<path d="M115.803 46.8043C115.803 47.5315 115.682 48.2184 115.52 48.9052C115.641 48.2184 115.763 47.5315 115.803 46.8043Z" fill="white" stroke="black" stroke-width="5" stroke-miterlimit="10"/>
<path d="M115.803 94.7605C115.763 98.1138 114.022 101.386 110.904 103.204L109.729 103.851L68.9933 127.364C64.2962 130.071 58.2627 128.495 55.5497 123.769C52.8367 119.082 54.4159 113.062 59.1536 110.355L81.7486 97.3058C83.7328 96.1745 83.7328 93.3061 81.7486 92.1344L59.5585 79.3273L59.1536 79.0849C56.1166 77.3072 54.3349 74.1559 54.254 70.8834C54.254 70.6814 54.254 70.4794 54.254 70.2774C54.3754 67.0049 56.1166 63.8536 59.1536 62.076L59.5585 61.8336L86.2839 46.4003L101.023 37.8757C103.979 36.1788 107.462 36.1788 110.296 37.5525L110.863 37.8757C113.9 39.6533 115.682 42.8046 115.763 46.0771C115.763 46.2791 115.763 46.4811 115.763 46.6831C115.722 47.4104 115.641 48.0972 115.479 48.784C114.831 51.2485 113.252 53.4705 110.863 54.8442L110.296 55.1674L88.187 67.9341C86.2029 69.0654 86.2029 71.9338 88.187 73.1055L109.689 85.549L110.863 86.1954C114.022 88.1347 115.763 91.4072 115.803 94.7605Z" fill="white" stroke="black" stroke-width="5" stroke-miterlimit="10"/>
<path d="M8.22656 163.629H3.84375L3.82031 161.074H7.44141C8.08203 161.074 8.60156 160.996 9 160.84C9.40625 160.684 9.70312 160.457 9.89062 160.16C10.0781 159.855 10.1719 159.48 10.1719 159.035C10.1719 158.527 10.0781 158.117 9.89062 157.805C9.70312 157.492 9.40625 157.266 9 157.125C8.60156 156.977 8.08594 156.902 7.45312 156.902H5.22656V171H1.40625V153.938H7.45312C8.47656 153.938 9.39062 154.031 10.1953 154.219C11 154.406 11.6836 154.695 12.2461 155.086C12.8164 155.477 13.25 155.965 13.5469 156.551C13.8438 157.137 13.9922 157.828 13.9922 158.625C13.9922 159.32 13.8359 159.969 13.5234 160.57C13.2188 161.172 12.7266 161.66 12.0469 162.035C11.3672 162.41 10.457 162.613 9.31641 162.645L8.22656 163.629ZM8.07422 171H2.87109L4.25391 168.047H8.07422C8.66016 168.047 9.13672 167.953 9.50391 167.766C9.87109 167.578 10.1406 167.324 10.3125 167.004C10.4844 166.684 10.5703 166.324 10.5703 165.926C10.5703 165.457 10.4883 165.051 10.3242 164.707C10.168 164.363 9.91797 164.098 9.57422 163.91C9.23828 163.723 8.78906 163.629 8.22656 163.629H4.80469L4.82812 161.074H9.01172L9.90234 162.082C10.9883 162.059 11.8555 162.234 12.5039 162.609C13.1602 162.977 13.6328 163.461 13.9219 164.062C14.2109 164.664 14.3555 165.301 14.3555 165.973C14.3555 167.082 14.1172 168.012 13.6406 168.762C13.1641 169.504 12.457 170.062 11.5195 170.438C10.5898 170.812 9.44141 171 8.07422 171ZM28.5297 168.047V171H19.4477V168.047H28.5297ZM20.7484 153.938V171H16.9281V153.938H20.7484ZM27.3578 160.805V163.664H19.4477V160.805H27.3578ZM28.5414 153.938V156.902H19.4477V153.938H28.5414ZM38.6844 153.938V171H34.8758V153.938H38.6844ZM43.8758 153.938V156.902H29.7898V153.938H43.8758ZM53.9953 153.938V171H50.1867V153.938H53.9953ZM59.1867 153.938V156.902H45.1008V153.938H59.1867ZM72.775 168.047V171H63.693V168.047H72.775ZM64.9938 153.938V171H61.1734V153.938H64.9938ZM71.6031 160.805V163.664H63.693V160.805H71.6031ZM72.7867 153.938V156.902H63.693V153.938H72.7867ZM74.75 153.938H81.3008C82.6055 153.938 83.7344 154.133 84.6875 154.523C85.6484 154.914 86.3867 155.492 86.9023 156.258C87.418 157.023 87.6758 157.969 87.6758 159.094C87.6758 160.031 87.5234 160.828 87.2188 161.484C86.9141 162.141 86.4844 162.684 85.9297 163.113C85.3828 163.543 84.7422 163.891 84.0078 164.156L82.7656 164.836H77.1875L77.1641 161.871H81.3125C81.8828 161.871 82.3555 161.77 82.7305 161.566C83.1055 161.363 83.3867 161.078 83.5742 160.711C83.7695 160.336 83.8672 159.898 83.8672 159.398C83.8672 158.883 83.7695 158.438 83.5742 158.062C83.3789 157.688 83.0898 157.402 82.707 157.207C82.332 157.004 81.8633 156.902 81.3008 156.902H78.5703V171H74.75V153.938ZM84.1953 171L80.3633 163.418L84.3945 163.406L88.2852 170.824V171H84.1953ZM105.29 166.5C105.29 166.211 105.247 165.953 105.161 165.727C105.075 165.492 104.919 165.277 104.692 165.082C104.466 164.887 104.145 164.691 103.731 164.496C103.317 164.293 102.774 164.086 102.102 163.875C101.337 163.625 100.606 163.344 99.9109 163.031C99.2234 162.711 98.6102 162.34 98.0711 161.918C97.532 161.496 97.1062 161.004 96.7937 160.441C96.4891 159.879 96.3367 159.223 96.3367 158.473C96.3367 157.746 96.4969 157.09 96.8172 156.504C97.1375 155.918 97.5867 155.418 98.1648 155.004C98.743 154.582 99.4227 154.262 100.204 154.043C100.985 153.816 101.845 153.703 102.782 153.703C104.032 153.703 105.13 153.926 106.075 154.371C107.028 154.809 107.77 155.426 108.302 156.223C108.833 157.012 109.098 157.93 109.098 158.977H105.302C105.302 158.516 105.204 158.109 105.009 157.758C104.821 157.398 104.532 157.117 104.141 156.914C103.759 156.711 103.278 156.609 102.7 156.609C102.137 156.609 101.665 156.695 101.282 156.867C100.907 157.031 100.622 157.258 100.427 157.547C100.239 157.836 100.145 158.152 100.145 158.496C100.145 158.77 100.216 159.02 100.356 159.246C100.505 159.465 100.716 159.672 100.989 159.867C101.27 160.055 101.614 160.234 102.02 160.406C102.427 160.578 102.891 160.742 103.415 160.898C104.329 161.188 105.137 161.508 105.841 161.859C106.552 162.211 107.149 162.609 107.634 163.055C108.118 163.5 108.481 164.004 108.723 164.566C108.973 165.129 109.098 165.766 109.098 166.477C109.098 167.234 108.95 167.906 108.653 168.492C108.364 169.078 107.942 169.578 107.387 169.992C106.841 170.398 106.184 170.707 105.419 170.918C104.653 171.129 103.798 171.234 102.852 171.234C101.993 171.234 101.145 171.125 100.309 170.906C99.4734 170.68 98.7156 170.336 98.0359 169.875C97.3641 169.414 96.825 168.828 96.4187 168.117C96.0203 167.398 95.8211 166.547 95.8211 165.562H99.6414C99.6414 166.078 99.7156 166.516 99.8641 166.875C100.012 167.227 100.223 167.512 100.497 167.73C100.778 167.949 101.118 168.105 101.516 168.199C101.915 168.293 102.36 168.34 102.852 168.34C103.423 168.34 103.884 168.262 104.235 168.105C104.595 167.941 104.86 167.719 105.032 167.438C105.204 167.156 105.29 166.844 105.29 166.5ZM118.175 165.07H113.886V162.105H118.175C118.808 162.105 119.316 162 119.698 161.789C120.089 161.578 120.374 161.289 120.554 160.922C120.741 160.547 120.835 160.125 120.835 159.656C120.835 159.172 120.741 158.723 120.554 158.309C120.374 157.887 120.089 157.547 119.698 157.289C119.316 157.031 118.808 156.902 118.175 156.902H115.269V171H111.448V153.938H118.175C119.534 153.938 120.698 154.184 121.667 154.676C122.644 155.168 123.39 155.844 123.905 156.703C124.429 157.555 124.691 158.531 124.691 159.633C124.691 160.734 124.429 161.691 123.905 162.504C123.39 163.316 122.644 163.949 121.667 164.402C120.698 164.848 119.534 165.07 118.175 165.07ZM132.185 157.184L127.779 171H123.701L130.017 153.938H132.595L132.185 157.184ZM135.841 171L131.423 157.184L130.966 153.938H133.58L139.92 171H135.841ZM135.654 164.648V167.602H126.759V164.648H135.654ZM151.012 165.281H154.809C154.746 166.453 154.426 167.488 153.848 168.387C153.277 169.277 152.484 169.977 151.469 170.484C150.453 170.984 149.246 171.234 147.848 171.234C146.73 171.234 145.73 171.043 144.848 170.66C143.965 170.277 143.215 169.73 142.598 169.02C141.988 168.301 141.52 167.438 141.191 166.43C140.871 165.414 140.711 164.27 140.711 162.996V161.953C140.711 160.68 140.879 159.535 141.215 158.52C141.551 157.504 142.031 156.637 142.656 155.918C143.281 155.199 144.031 154.648 144.906 154.266C145.781 153.883 146.758 153.691 147.836 153.691C149.289 153.691 150.516 153.953 151.516 154.477C152.516 155 153.289 155.719 153.836 156.633C154.391 157.547 154.723 158.59 154.832 159.762H151.023C150.992 159.098 150.867 158.539 150.648 158.086C150.43 157.625 150.094 157.277 149.641 157.043C149.188 156.809 148.586 156.691 147.836 156.691C147.289 156.691 146.809 156.793 146.395 156.996C145.988 157.199 145.648 157.516 145.375 157.945C145.109 158.375 144.91 158.922 144.777 159.586C144.645 160.242 144.578 161.023 144.578 161.93V162.996C144.578 163.895 144.637 164.672 144.754 165.328C144.871 165.984 145.059 166.527 145.316 166.957C145.582 167.387 145.922 167.707 146.336 167.918C146.75 168.129 147.254 168.234 147.848 168.234C148.527 168.234 149.094 168.129 149.547 167.918C150 167.699 150.348 167.371 150.59 166.934C150.832 166.496 150.973 165.945 151.012 165.281ZM168.631 168.047V171H159.549V168.047H168.631ZM160.85 153.938V171H157.03V153.938H160.85ZM167.459 160.805V163.664H159.549V160.805H167.459ZM168.643 153.938V156.902H159.549V153.938H168.643Z" fill="black"/>
</svg>
