<svg width="12" height="12" viewBox="0 0 12 12" fill="none" xmlns="http://www.w3.org/2000/svg">
<path d="M4.5 2.50025C4.36739 2.50025 4.24021 2.55293 4.14645 2.6467C4.05268 2.74046 4 2.86764 4 3.00025C4 3.13286 4.05268 3.26003 4.14645 3.3538C4.24021 3.44757 4.36739 3.50025 4.5 3.50025C4.63261 3.50025 4.75979 3.44757 4.85355 3.3538C4.94732 3.26003 5 3.13286 5 3.00025C5 2.86764 4.94732 2.74046 4.85355 2.6467C4.75979 2.55293 4.63261 2.50025 4.5 2.50025ZM3.085 2.50025C3.1883 2.20748 3.37987 1.95397 3.6333 1.77464C3.88673 1.59532 4.18954 1.49902 4.5 1.49902C4.81046 1.49902 5.11327 1.59532 5.3667 1.77464C5.62013 1.95397 5.8117 2.20748 5.915 2.50025H9.5C9.63261 2.50025 9.75979 2.55293 9.85355 2.6467C9.94732 2.74046 10 2.86764 10 3.00025C10 3.13286 9.94732 3.26003 9.85355 3.3538C9.75979 3.44757 9.63261 3.50025 9.5 3.50025H5.915C5.8117 3.79302 5.62013 4.04653 5.3667 4.22585C5.11327 4.40518 4.81046 4.50147 4.5 4.50147C4.18954 4.50147 3.88673 4.40518 3.6333 4.22585C3.37987 4.04653 3.1883 3.79302 3.085 3.50025H2.5C2.36739 3.50025 2.24021 3.44757 2.14645 3.3538C2.05268 3.26003 2 3.13286 2 3.00025C2 2.86764 2.05268 2.74046 2.14645 2.6467C2.24021 2.55293 2.36739 2.50025 2.5 2.50025H3.085ZM7.5 5.50025C7.36739 5.50025 7.24021 5.55293 7.14645 5.6467C7.05268 5.74046 7 5.86764 7 6.00025C7 6.13286 7.05268 6.26003 7.14645 6.3538C7.24021 6.44757 7.36739 6.50025 7.5 6.50025C7.63261 6.50025 7.75979 6.44757 7.85355 6.3538C7.94732 6.26003 8 6.13286 8 6.00025C8 5.86764 7.94732 5.74046 7.85355 5.6467C7.75979 5.55293 7.63261 5.50025 7.5 5.50025ZM6.085 5.50025C6.1883 5.20748 6.37987 4.95397 6.6333 4.77464C6.88673 4.59532 7.18954 4.49902 7.5 4.49902C7.81046 4.49902 8.11327 4.59532 8.3667 4.77464C8.62013 4.95397 8.8117 5.20748 8.915 5.50025H9.5C9.63261 5.50025 9.75979 5.55293 9.85355 5.6467C9.94732 5.74046 10 5.86764 10 6.00025C10 6.13286 9.94732 6.26003 9.85355 6.3538C9.75979 6.44757 9.63261 6.50025 9.5 6.50025H8.915C8.8117 6.79302 8.62013 7.04653 8.3667 7.22585C8.11327 7.40518 7.81046 7.50147 7.5 7.50147C7.18954 7.50147 6.88673 7.40518 6.6333 7.22585C6.37987 7.04653 6.1883 6.79302 6.085 6.50025H2.5C2.36739 6.50025 2.24021 6.44757 2.14645 6.3538C2.05268 6.26003 2 6.13286 2 6.00025C2 5.86764 2.05268 5.74046 2.14645 5.6467C2.24021 5.55293 2.36739 5.50025 2.5 5.50025H6.085ZM4.5 8.50025C4.36739 8.50025 4.24021 8.55293 4.14645 8.6467C4.05268 8.74046 4 8.86764 4 9.00025C4 9.13286 4.05268 9.26003 4.14645 9.3538C4.24021 9.44757 4.36739 9.50025 4.5 9.50025C4.63261 9.50025 4.75979 9.44757 4.85355 9.3538C4.94732 9.26003 5 9.13286 5 9.00025C5 8.86764 4.94732 8.74046 4.85355 8.6467C4.75979 8.55293 4.63261 8.50025 4.5 8.50025ZM3.085 8.50025C3.1883 8.20748 3.37987 7.95397 3.6333 7.77464C3.88673 7.59532 4.18954 7.49902 4.5 7.49902C4.81046 7.49902 5.11327 7.59532 5.3667 7.77464C5.62013 7.95397 5.8117 8.20748 5.915 8.50025H9.5C9.63261 8.50025 9.75979 8.55293 9.85355 8.6467C9.94732 8.74046 10 8.86764 10 9.00025C10 9.13286 9.94732 9.26003 9.85355 9.3538C9.75979 9.44757 9.63261 9.50025 9.5 9.50025H5.915C5.8117 9.79302 5.62013 10.0465 5.3667 10.2259C5.11327 10.4052 4.81046 10.5015 4.5 10.5015C4.18954 10.5015 3.88673 10.4052 3.6333 10.2259C3.37987 10.0465 3.1883 9.79302 3.085 9.50025H2.5C2.36739 9.50025 2.24021 9.44757 2.14645 9.3538C2.05268 9.26003 2 9.13286 2 9.00025C2 8.86764 2.05268 8.74046 2.14645 8.6467C2.24021 8.55293 2.36739 8.50025 2.5 8.50025H3.085Z" fill="#2943A3"/>
</svg>
