<?xml version="1.0" standalone="no"?>
<!DOCTYPE svg PUBLIC "-//W3C//DTD SVG 20010904//EN"
 "http://www.w3.org/TR/2001/REC-SVG-20010904/DTD/svg10.dtd">
<svg version="1.0" xmlns="http://www.w3.org/2000/svg"
 width="43.000000pt" height="69.000000pt" viewBox="0 0 43.000000 69.000000"
 preserveAspectRatio="xMidYMid meet">

<g transform="translate(0.000000,69.000000) scale(0.100000,-0.100000)"
fill="#000000" stroke="none">
<path d="M70 621 l-65 -17 -3 -57 -3 -57 46 0 c33 0 47 -5 52 -16 8 -22 -15
-35 -59 -32 -38 4 -38 3 -38 -34 l0 -37 47 -3 c36 -2 49 -7 51 -20 3 -15 -4
-18 -47 -18 -44 0 -51 -3 -51 -19 0 -16 8 -20 43 -23 l42 -3 3 -57 3 -58 49 0
50 0 0 183 c0 100 -3 206 -6 235 -8 60 -9 61 -114 33z"/>
<path d="M230 349 l0 -179 95 0 95 0 1 78 c0 103 -2 266 -4 268 -1 1 -44 4
-94 7 l-93 6 0 -180z m149 68 c16 -21 3 -27 -56 -27 -37 0 -53 4 -53 13 0 8 3
17 7 20 12 12 90 7 102 -6z m6 -77 c12 -19 -17 -40 -54 -40 -44 0 -66 13 -58
34 7 19 101 23 112 6z m0 -80 c12 -19 -17 -40 -54 -40 -44 0 -66 13 -58 34 7
19 101 23 112 6z"/>
<path d="M0 205 c0 -28 4 -35 20 -35 16 0 20 7 20 35 0 28 -4 35 -20 35 -16 0
-20 -7 -20 -35z"/>
<path d="M77 123 l-78 -4 3 -32 3 -32 210 0 210 0 3 29 c2 16 -2 32 -10 37
-12 8 -173 9 -341 2z"/>
</g>
</svg>
