<svg width="20" height="16" viewBox="0 0 20 16" fill="none" xmlns="http://www.w3.org/2000/svg">
<path d="M0.400024 4.0998C0.400024 3.22459 0.747702 2.38522 1.36657 1.76635C1.98544 1.14748 2.82481 0.799805 3.70002 0.799805H16.3C17.1752 0.799805 18.0146 1.14748 18.6335 1.76635C19.2523 2.38522 19.6 3.22459 19.6 4.0998V11.8998C19.6 12.775 19.2523 13.6144 18.6335 14.2333C18.0146 14.8521 17.1752 15.1998 16.3 15.1998H3.70002C2.82481 15.1998 1.98544 14.8521 1.36657 14.2333C0.747702 13.6144 0.400024 12.775 0.400024 11.8998V4.0998ZM3.70002 1.9998C3.14307 1.9998 2.60893 2.22105 2.2151 2.61488C1.82127 3.00871 1.60002 3.54285 1.60002 4.0998V11.8998C1.60002 13.059 2.54082 13.9998 3.70002 13.9998H16.3C16.857 13.9998 17.3911 13.7786 17.7849 13.3847C18.1788 12.9909 18.4 12.4568 18.4 11.8998V4.0998C18.4 3.54285 18.1788 3.00871 17.7849 2.61488C17.3911 2.22105 16.857 1.9998 16.3 1.9998H3.70002ZM11.2 3.7998C11.2 3.64067 11.2632 3.48806 11.3758 3.37554C11.4883 3.26302 11.6409 3.1998 11.8 3.1998H14.2C14.3592 3.1998 14.5118 3.26302 14.6243 3.37554C14.7368 3.48806 14.8 3.64067 14.8 3.7998V6.1998C14.8 6.35893 14.7368 6.51155 14.6243 6.62407C14.5118 6.73659 14.3592 6.7998 14.2 6.7998C14.0409 6.7998 13.8883 6.73659 13.7758 6.62407C13.6632 6.51155 13.6 6.35893 13.6 6.1998V5.2482L11.6248 7.22461C11.5122 7.33727 11.3594 7.40056 11.2 7.40056C11.0407 7.40056 10.8879 7.33727 10.7752 7.22461C10.6626 7.11194 10.5993 6.95914 10.5993 6.7998C10.5993 6.64047 10.6626 6.48767 10.7752 6.375L12.7516 4.3998H11.8C11.6409 4.3998 11.4883 4.33659 11.3758 4.22407C11.2632 4.11155 11.2 3.95893 11.2 3.7998ZM8.37522 8.775C8.48789 8.66234 8.64069 8.59905 8.80002 8.59905C8.95936 8.59905 9.11216 8.66234 9.22482 8.775C9.33749 8.88767 9.40078 9.04047 9.40078 9.19981C9.40078 9.35914 9.33749 9.51194 9.22482 9.62461L7.24842 11.5998H8.20002C8.35915 11.5998 8.51177 11.663 8.62429 11.7755C8.73681 11.8881 8.80002 12.0407 8.80002 12.1998C8.80002 12.3589 8.73681 12.5115 8.62429 12.6241C8.51177 12.7366 8.35915 12.7998 8.20002 12.7998H5.80002C5.64089 12.7998 5.48828 12.7366 5.37576 12.6241C5.26324 12.5115 5.20002 12.3589 5.20002 12.1998V9.7998C5.20002 9.64067 5.26324 9.48806 5.37576 9.37554C5.48828 9.26302 5.64089 9.19981 5.80002 9.19981C5.95915 9.19981 6.11177 9.26302 6.22429 9.37554C6.33681 9.48806 6.40002 9.64067 6.40002 9.7998V10.7514L8.37522 8.775Z" fill="#2943A3"/>
</svg>
