<svg width="22" height="22" viewBox="0 0 22 22" fill="none" xmlns="http://www.w3.org/2000/svg">
<path d="M13 9.5V7M9 9.5V7M11 21C16.523 21 21 16.523 21 11C21 5.477 16.523 1 11 1C5.477 1 1 5.477 1 11C1 16.523 5.477 21 11 21Z" stroke="#2943A3" stroke-width="2" stroke-linecap="round" stroke-linejoin="round"/>
<path d="M11 15C12.0609 15 13.0783 14.5786 13.8284 13.8284C14.5786 13.0783 15 12.0609 15 11V9.5H7V11C7 12.0609 7.42143 13.0783 8.17157 13.8284C8.92172 14.5786 9.93913 15 11 15ZM11 21V15V21Z" fill="#2943A3"/>
<path d="M11 21V15M11 15C12.0609 15 13.0783 14.5786 13.8284 13.8284C14.5786 13.0783 15 12.0609 15 11V9.5H7V11C7 12.0609 7.42143 13.0783 8.17157 13.8284C8.92172 14.5786 9.93913 15 11 15Z" stroke="#2943A3" stroke-width="2" stroke-linecap="round" stroke-linejoin="round"/>
</svg>
