<svg width="17" height="20" viewBox="0 0 17 20" fill="none" xmlns="http://www.w3.org/2000/svg">
<path d="M2.5 20C2.21667 20 1.979 19.904 1.787 19.712C1.59567 19.5207 1.5 19.2833 1.5 19V12.5H1C0.716667 12.5 0.479 12.404 0.287 12.212C0.0956668 12.0207 0 11.7833 0 11.5V7C0 6.45 0.196 5.979 0.588 5.587C0.979333 5.19567 1.45 5 2 5H5C5.55 5 6.021 5.19567 6.413 5.587C6.80433 5.979 7 6.45 7 7V11.5C7 11.7833 6.90433 12.0207 6.713 12.212C6.521 12.404 6.28333 12.5 6 12.5H5.5V19C5.5 19.2833 5.40433 19.5207 5.213 19.712C5.021 19.904 4.78333 20 4.5 20H2.5ZM12 20C11.7167 20 11.4793 19.904 11.288 19.712C11.096 19.5207 11 19.2833 11 19V14H9.375C9.04167 14 8.775 13.8623 8.575 13.587C8.375 13.3123 8.33333 13.0083 8.45 12.675L10.55 6.35C10.6833 5.91667 10.9293 5.58333 11.288 5.35C11.646 5.11667 12.05 5 12.5 5C12.95 5 13.354 5.11667 13.712 5.35C14.0707 5.58333 14.3167 5.91667 14.45 6.35L16.55 12.675C16.6667 13.0083 16.625 13.3123 16.425 13.587C16.225 13.8623 15.9583 14 15.625 14H14V19C14 19.2833 13.904 19.5207 13.712 19.712C13.5207 19.904 13.2833 20 13 20H12ZM3.5 4C2.95 4 2.47933 3.804 2.088 3.412C1.696 3.02067 1.5 2.55 1.5 2C1.5 1.45 1.696 0.979 2.088 0.587C2.47933 0.195667 2.95 0 3.5 0C4.05 0 4.521 0.195667 4.913 0.587C5.30433 0.979 5.5 1.45 5.5 2C5.5 2.55 5.30433 3.02067 4.913 3.412C4.521 3.804 4.05 4 3.5 4ZM12.5 4C11.95 4 11.4793 3.804 11.088 3.412C10.696 3.02067 10.5 2.55 10.5 2C10.5 1.45 10.696 0.979 11.088 0.587C11.4793 0.195667 11.95 0 12.5 0C13.05 0 13.521 0.195667 13.913 0.587C14.3043 0.979 14.5 1.45 14.5 2C14.5 2.55 14.3043 3.02067 13.913 3.412C13.521 3.804 13.05 4 12.5 4Z" fill="#2943A3"/>
</svg>
