<svg width="14" height="20" viewBox="0 0 14 20" fill="none" xmlns="http://www.w3.org/2000/svg">
<path fill-rule="evenodd" clip-rule="evenodd" d="M8.815 1.57872C8.96132 1.36233 9.01717 1.09728 8.97059 0.840255C8.92402 0.583226 8.77872 0.354624 8.56577 0.203341C8.35282 0.0520571 8.08914 -0.00989804 7.8311 0.0307255C7.57306 0.071349 7.34116 0.211326 7.185 0.42072L6.185 1.82972C6.14687 1.88306 6.11405 1.94 6.087 1.99972H2.5C2.10218 1.99972 1.72064 2.15776 1.43934 2.43906C1.15804 2.72036 1 3.1019 1 3.49972V4.99972L1.003 5.08372C0.7097 5.18672 0.455646 5.3783 0.275963 5.63196C0.0962815 5.88563 -0.000150961 6.18886 1.77387e-07 6.49972V7.99972C-3.12704e-06 8.26407 0.104667 8.51767 0.291124 8.70506C0.47758 8.89246 0.730651 8.9984 0.995 8.99972L1.915 18.1997C1.96458 18.693 2.19564 19.1504 2.56334 19.483C2.93105 19.8156 3.40919 19.9997 3.905 19.9997H10.095C10.5908 19.9997 11.069 19.8156 11.4367 19.483C11.8044 19.1504 12.0354 18.693 12.085 18.1997L13.005 8.99972C13.2693 8.9984 13.5224 8.89246 13.7089 8.70506C13.8953 8.51767 14 8.26407 14 7.99972V6.49972C14.0002 6.18886 13.9037 5.88563 13.724 5.63196C13.5444 5.3783 13.2903 5.18672 12.997 5.08372L13 4.99972V3.49972C13 3.1019 12.842 2.72036 12.5607 2.43906C12.2794 2.15776 11.8978 1.99972 11.5 1.99972H8.517L8.815 1.57872ZM3 4.99972V3.99972H11V4.99972H3ZM12 7.99972H2V6.99972H12V7.99972ZM3.105 9.99972L3.905 17.9997H10.095L10.895 9.99972H3.105Z" fill="#2943A3"/>
</svg>
