<svg width="20" height="18" viewBox="0 0 20 18" fill="none" xmlns="http://www.w3.org/2000/svg">
<path d="M2 4H18V2H2V4ZM0 2C0 1.45 0.196 0.979333 0.588 0.588C0.979333 0.196 1.45 0 2 0H18C18.55 0 19.021 0.196 19.413 0.588C19.8043 0.979333 20 1.45 20 2V8H2V14H4.15C4.43333 14 4.66667 14.096 4.85 14.288C5.03333 14.4793 5.125 14.7167 5.125 15C5.125 15.2833 5.025 15.5207 4.825 15.712C4.625 15.904 4.38333 16 4.1 16H2C1.45 16 0.979333 15.8043 0.588 15.413C0.196 15.021 0 14.55 0 14V2ZM12.95 15.15L17.9 10.2C18.0833 10.0167 18.3123 9.925 18.587 9.925C18.8623 9.925 19.1 10.025 19.3 10.225C19.5 10.425 19.596 10.6667 19.588 10.95C19.5793 11.2333 19.475 11.475 19.275 11.675L13.65 17.3C13.45 17.5 13.2167 17.6 12.95 17.6C12.6833 17.6 12.45 17.5 12.25 17.3L9.375 14.425C9.19167 14.2417 9.1 14.0167 9.1 13.75C9.1 13.4833 9.2 13.25 9.4 13.05C9.58333 12.8667 9.81267 12.775 10.088 12.775C10.3627 12.775 10.6 12.8667 10.8 13.05L12.95 15.15ZM2 2V14V10.75V12.325V2Z" fill="#2943A3"/>
</svg>
