<svg width="22" height="16" viewBox="0 0 22 16" fill="none" xmlns="http://www.w3.org/2000/svg">
<path d="M1.05999 6.06002C1.56999 6.57002 2.37999 6.62002 2.92999 6.16002C7.59999 2.32002 14.38 2.32002 19.06 6.15002C19.62 6.61002 20.44 6.57002 20.95 6.06002C21.54 5.47002 21.5 4.49002 20.85 3.96002C15.14 -0.70998 6.87999 -0.70998 1.15999 3.96002C0.509993 4.48002 0.459993 5.46002 1.05999 6.06002ZM8.81999 13.82L10.29 15.29C10.68 15.68 11.31 15.68 11.7 15.29L13.17 13.82C13.64 13.35 13.54 12.54 12.94 12.23C11.72 11.6 10.26 11.6 9.02999 12.23C8.45999 12.54 8.34999 13.35 8.81999 13.82ZM5.08999 10.09C5.57999 10.58 6.34999 10.63 6.91999 10.22C9.35999 8.49002 12.64 8.49002 15.08 10.22C15.65 10.62 16.42 10.58 16.91 10.09L16.92 10.08C17.52 9.48002 17.48 8.46002 16.79 7.97002C13.35 5.48002 8.65999 5.48002 5.20999 7.97002C4.51999 8.47002 4.47999 9.48002 5.08999 10.09Z" fill="#2943A3"/>
</svg>
