<svg width="20" height="16" viewBox="0 0 20 16" fill="none" xmlns="http://www.w3.org/2000/svg">
<path d="M19 0.000976562C18.4 0.000976562 15.4 1.50098 10 1.50098C4.7 1.50098 1.5 0.000976562 1 0.000976562C0.5 0.000976562 0 0.400977 0 1.00098V15.001C0 15.601 0.5 16.001 1 16.001C1.6 16.001 4.5 14.501 10 14.501C15.4 14.501 18.4 16.001 19 16.001C19.5 16.001 20 15.601 20 15.001V1.00098C20 0.400977 19.5 0.000976562 19 0.000976562ZM18 13.601C16 13.001 13.4 12.501 10 12.501C6.6 12.501 4 13.001 2 13.601V2.40098C4.6 3.10098 7.3 3.50098 10 3.50098C13.4 3.50098 16 3.00098 18 2.40098V13.601ZM7.2 7.00098L3.5 11.401C5.5 11.101 7.7 11.001 10 11.001C12.3 11.001 14.5 11.101 16.5 11.401L12 6.00098L9.2 9.40098L7.2 7.00098Z" fill="#2943A3"/>
</svg>
