<svg width="22" height="22" viewBox="0 0 22 22" fill="none" xmlns="http://www.w3.org/2000/svg">
<path d="M11 16C12.3833 16 13.5627 15.5167 14.538 14.55C15.5127 13.5833 16 12.4 16 11C16 10.8667 15.996 10.7333 15.988 10.6C15.9793 10.4667 15.9583 10.3333 15.925 10.2C15.7417 10.9833 15.3333 11.629 14.7 12.137C14.0667 12.6457 13.325 12.9 12.475 12.9C11.475 12.9 10.6333 12.5583 9.95 11.875C9.26667 11.1917 8.925 10.35 8.925 9.35C8.925 8.58333 9.14167 7.89567 9.575 7.287C10.0083 6.679 10.575 6.25 11.275 6H11C9.6 6 8.41667 6.48733 7.45 7.462C6.48333 8.43733 6 9.61667 6 11C6 12.4 6.48333 13.5833 7.45 14.55C8.41667 15.5167 9.6 16 11 16ZM12.025 10.5L13.5 9.425L14.95 10.5L14.375 8.8L15.85 7.725L14.05 7.75L13.5 6L12.95 7.75L11.125 7.725L12.6 8.8L12.025 10.5ZM7.65 19H5C4.45 19 3.97933 18.8043 3.588 18.413C3.196 18.021 3 17.55 3 17V14.35L1.1 12.425C0.7 12.0417 0.5 11.5667 0.5 11C0.5 10.4333 0.7 9.95833 1.1 9.575L3 7.65V5C3 4.45 3.196 3.97933 3.588 3.588C3.97933 3.196 4.45 3 5 3H7.65L9.575 1.1C9.95833 0.7 10.4333 0.5 11 0.5C11.5667 0.5 12.0417 0.7 12.425 1.1L14.35 3H17C17.55 3 18.021 3.196 18.413 3.588C18.8043 3.97933 19 4.45 19 5V7.65L20.9 9.575C21.3 9.95833 21.5 10.4333 21.5 11C21.5 11.5667 21.3 12.0417 20.9 12.425L19 14.35V17C19 17.55 18.8043 18.021 18.413 18.413C18.021 18.8043 17.55 19 17 19H14.35L12.425 20.9C12.0417 21.3 11.571 21.496 11.013 21.488C10.4543 21.4793 9.975 21.2833 9.575 20.9L7.65 19ZM11 19.5L13.5 17H17V13.5L19.5 11L17 8.5V5H13.5L11 2.5L8.5 5H5V8.5L2.5 11L5 13.5V17H8.5L11 19.5Z" fill="#2943A3"/>
</svg>
