<svg width="16" height="18" viewBox="0 0 16 18" fill="none" xmlns="http://www.w3.org/2000/svg">
<path d="M11 8.99704C11 9.19595 10.921 9.38671 10.7803 9.52736C10.6397 9.66802 10.4489 9.74704 10.25 9.74704C10.0511 9.74704 9.86032 9.66802 9.71967 9.52736C9.57902 9.38671 9.5 9.19595 9.5 8.99704C9.5 8.79812 9.57902 8.60736 9.71967 8.46671C9.86032 8.32605 10.0511 8.24704 10.25 8.24704C10.4489 8.24704 10.6397 8.32605 10.7803 8.46671C10.921 8.60736 11 8.79812 11 8.99704ZM7.397 0.0150353C7.28823 -0.0067047 7.176 -0.00404898 7.06838 0.0228109C6.96076 0.0496707 6.86044 0.100066 6.77465 0.170366C6.68885 0.240667 6.61972 0.329121 6.57223 0.429358C6.52474 0.529594 6.50007 0.639117 6.5 0.750035V17.2455C6.50007 17.3565 6.52474 17.466 6.57223 17.5662C6.61972 17.6664 6.68885 17.7549 6.77465 17.8252C6.86044 17.8955 6.96076 17.9459 7.06838 17.9728C7.176 17.9996 7.28823 18.0023 7.397 17.9805L14.897 16.4805C15.067 16.4466 15.2199 16.3548 15.3298 16.2208C15.4398 16.0868 15.4999 15.9189 15.5 15.7455V2.25004C15.4999 2.07672 15.4398 1.90878 15.3298 1.77479C15.2199 1.64079 15.067 1.54901 14.897 1.51504L7.397 0.0150353ZM8 16.3305V1.66504L14 2.86504V15.1305L8 16.3305ZM5 16.4955V14.9955H2V3.00004H5V1.50004H1.25C1.05109 1.50004 0.860322 1.57905 0.71967 1.71971C0.579018 1.86036 0.5 2.05112 0.5 2.25004V15.7455C0.5 15.9444 0.579018 16.1352 0.71967 16.2759C0.860322 16.4165 1.05109 16.4955 1.25 16.4955H5Z" fill="#2943A3"/>
</svg>
