<svg width="22" height="22" viewBox="0 0 22 22" fill="none" xmlns="http://www.w3.org/2000/svg">
<path d="M1.15 14C0.833333 14 0.575 13.8873 0.375 13.662C0.175 13.4373 0.1 13.1833 0.15 12.9C0.466667 11.25 1.35 10.0207 2.8 9.212C4.25 8.404 5.83333 8 7.55 8C9.26667 8 10.85 8.404 12.3 9.212C13.75 10.0207 14.6333 11.25 14.95 12.9C15 13.1833 14.925 13.4373 14.725 13.662C14.525 13.8873 14.2667 14 13.95 14H1.15ZM17.05 22V20H18.45L19.85 6H10.3L10.2 5.125C10.1667 4.825 10.246 4.56267 10.438 4.338C10.6293 4.11267 10.875 4 11.175 4H15.05V1C15.05 0.716667 15.1457 0.479 15.337 0.287C15.529 0.0956666 15.7667 0 16.05 0C16.3333 0 16.571 0.0956666 16.763 0.287C16.9543 0.479 17.05 0.716667 17.05 1V4H20.95C21.25 4 21.5 4.10833 21.7 4.325C21.9 4.54167 21.9833 4.8 21.95 5.1L20.4 20.55C20.35 20.95 20.171 21.2917 19.863 21.575C19.5543 21.8583 19.1833 22 18.75 22H17.05ZM12.325 12C11.8417 11.3333 11.1627 10.8333 10.288 10.5C9.41267 10.1667 8.48333 10 7.5 10C6.51667 10 5.58767 10.1667 4.713 10.5C3.83767 10.8333 3.15833 11.3333 2.675 12H12.325ZM1 18C0.716667 18 0.479333 17.904 0.288 17.712C0.096 17.5207 0 17.2833 0 17C0 16.7167 0.096 16.4793 0.288 16.288C0.479333 16.096 0.716667 16 1 16H14C14.2833 16 14.521 16.096 14.713 16.288C14.9043 16.4793 15 16.7167 15 17C15 17.2833 14.9043 17.5207 14.713 17.712C14.521 17.904 14.2833 18 14 18H1ZM1 22C0.716667 22 0.479333 21.904 0.288 21.712C0.096 21.5207 0 21.2833 0 21C0 20.7167 0.096 20.4793 0.288 20.288C0.479333 20.096 0.716667 20 1 20H14C14.2833 20 14.521 20.096 14.713 20.288C14.9043 20.4793 15 20.7167 15 21C15 21.2833 14.9043 21.5207 14.713 21.712C14.521 21.904 14.2833 22 14 22H1Z" fill="#2943A3"/>
</svg>
