<svg width="20" height="12" viewBox="0 0 20 12" fill="none" xmlns="http://www.w3.org/2000/svg">
<path d="M0 11V1C0 0.716667 0.0960001 0.479 0.288 0.287C0.479333 0.0956668 0.716667 0 1 0H19C19.2833 0 19.5207 0.0956668 19.712 0.287C19.904 0.479 20 0.716667 20 1V11C20 11.2833 19.904 11.5207 19.712 11.712C19.5207 11.904 19.2833 12 19 12C18.8667 12 18.7377 11.975 18.613 11.925C18.4877 11.875 18.3793 11.804 18.288 11.712C18.196 11.6207 18.125 11.5123 18.075 11.387C18.025 11.2623 18 11.1333 18 11V10H14V11C14 11.1333 13.975 11.2623 13.925 11.387C13.875 11.5123 13.8043 11.6207 13.713 11.712C13.621 11.804 13.5127 11.875 13.388 11.925C13.2627 11.975 13.1333 12 13 12C12.7167 12 12.4793 11.904 12.288 11.712C12.096 11.5207 12 11.2833 12 11V2H2V11C2 11.2833 1.90433 11.5207 1.713 11.712C1.521 11.904 1.28333 12 1 12C0.716667 12 0.479333 11.904 0.288 11.712C0.0960001 11.5207 0 11.2833 0 11ZM14 4H18V2H14V4ZM14 8H18V6H14V8Z" fill="#2943A3"/>
</svg>
